<mxfile host="Electron" agent="Mozilla/5.0 (Macintosh; Intel Mac OS X 10_15_7) AppleWebKit/537.36 (KHTML, like Gecko) draw.io/24.7.17 Chrome/128.0.6613.36 Electron/32.0.1 Safari/537.36" version="24.7.17">
  <diagram name="페이지-1" id="tQaZ97uo_MY67wMUe4Z4">
    <mxGraphModel dx="2074" dy="1214" grid="1" gridSize="10" guides="1" tooltips="1" connect="1" arrows="1" fold="1" page="1" pageScale="1" pageWidth="827" pageHeight="1169" math="0" shadow="0">
      <root>
        <mxCell id="0" />
        <mxCell id="1" parent="0" />
        <mxCell id="1f2FrhAZtQ47NlTDxWQD-60" value="" style="rounded=0;whiteSpace=wrap;html=1;" vertex="1" parent="1">
          <mxGeometry x="30" y="155" width="1540" height="515" as="geometry" />
        </mxCell>
        <mxCell id="1f2FrhAZtQ47NlTDxWQD-62" value="" style="rounded=0;whiteSpace=wrap;html=1;" vertex="1" parent="1">
          <mxGeometry x="790" y="200" width="730" height="430" as="geometry" />
        </mxCell>
        <mxCell id="1f2FrhAZtQ47NlTDxWQD-59" value="" style="rounded=0;whiteSpace=wrap;html=1;" vertex="1" parent="1">
          <mxGeometry x="60" y="200" width="730" height="430" as="geometry" />
        </mxCell>
        <mxCell id="1f2FrhAZtQ47NlTDxWQD-4" style="rounded=0;orthogonalLoop=1;jettySize=auto;html=1;exitX=0.5;exitY=1;exitDx=0;exitDy=0;entryX=0.5;entryY=0;entryDx=0;entryDy=0;endArrow=none;endFill=0;" edge="1" parent="1" source="1f2FrhAZtQ47NlTDxWQD-1" target="1f2FrhAZtQ47NlTDxWQD-2">
          <mxGeometry relative="1" as="geometry" />
        </mxCell>
        <mxCell id="1f2FrhAZtQ47NlTDxWQD-5" style="rounded=0;orthogonalLoop=1;jettySize=auto;html=1;exitX=0.5;exitY=1;exitDx=0;exitDy=0;entryX=0.5;entryY=0;entryDx=0;entryDy=0;endArrow=none;endFill=0;" edge="1" parent="1" source="1f2FrhAZtQ47NlTDxWQD-1" target="1f2FrhAZtQ47NlTDxWQD-3">
          <mxGeometry relative="1" as="geometry" />
        </mxCell>
        <mxCell id="1f2FrhAZtQ47NlTDxWQD-1" value="&lt;font style=&quot;font-size: 29px;&quot;&gt;A&lt;/font&gt;" style="ellipse;whiteSpace=wrap;html=1;aspect=fixed;" vertex="1" parent="1">
          <mxGeometry x="260" y="240" width="80" height="80" as="geometry" />
        </mxCell>
        <mxCell id="1f2FrhAZtQ47NlTDxWQD-8" style="rounded=0;orthogonalLoop=1;jettySize=auto;html=1;exitX=0.5;exitY=1;exitDx=0;exitDy=0;entryX=0.5;entryY=0;entryDx=0;entryDy=0;endArrow=none;endFill=0;" edge="1" parent="1" source="1f2FrhAZtQ47NlTDxWQD-2" target="1f2FrhAZtQ47NlTDxWQD-6">
          <mxGeometry relative="1" as="geometry" />
        </mxCell>
        <mxCell id="1f2FrhAZtQ47NlTDxWQD-9" style="rounded=0;orthogonalLoop=1;jettySize=auto;html=1;exitX=0.5;exitY=1;exitDx=0;exitDy=0;entryX=0.5;entryY=0;entryDx=0;entryDy=0;endArrow=none;endFill=0;" edge="1" parent="1" source="1f2FrhAZtQ47NlTDxWQD-2" target="1f2FrhAZtQ47NlTDxWQD-7">
          <mxGeometry relative="1" as="geometry" />
        </mxCell>
        <mxCell id="1f2FrhAZtQ47NlTDxWQD-2" value="&lt;font style=&quot;font-size: 29px;&quot;&gt;B&lt;/font&gt;" style="ellipse;whiteSpace=wrap;html=1;aspect=fixed;" vertex="1" parent="1">
          <mxGeometry x="180" y="360" width="80" height="80" as="geometry" />
        </mxCell>
        <mxCell id="1f2FrhAZtQ47NlTDxWQD-11" style="rounded=0;orthogonalLoop=1;jettySize=auto;html=1;exitX=0.5;exitY=1;exitDx=0;exitDy=0;entryX=0.5;entryY=0;entryDx=0;entryDy=0;endArrow=none;endFill=0;" edge="1" parent="1" source="1f2FrhAZtQ47NlTDxWQD-3" target="1f2FrhAZtQ47NlTDxWQD-10">
          <mxGeometry relative="1" as="geometry" />
        </mxCell>
        <mxCell id="1f2FrhAZtQ47NlTDxWQD-3" value="&lt;font style=&quot;font-size: 29px;&quot;&gt;C&lt;/font&gt;" style="ellipse;whiteSpace=wrap;html=1;aspect=fixed;" vertex="1" parent="1">
          <mxGeometry x="340" y="360" width="80" height="80" as="geometry" />
        </mxCell>
        <mxCell id="1f2FrhAZtQ47NlTDxWQD-6" value="&lt;font style=&quot;font-size: 29px;&quot;&gt;D&lt;/font&gt;" style="ellipse;whiteSpace=wrap;html=1;aspect=fixed;" vertex="1" parent="1">
          <mxGeometry x="100" y="480" width="80" height="80" as="geometry" />
        </mxCell>
        <mxCell id="1f2FrhAZtQ47NlTDxWQD-7" value="&lt;font style=&quot;font-size: 29px;&quot;&gt;E&lt;/font&gt;" style="ellipse;whiteSpace=wrap;html=1;aspect=fixed;" vertex="1" parent="1">
          <mxGeometry x="260" y="480" width="80" height="80" as="geometry" />
        </mxCell>
        <mxCell id="1f2FrhAZtQ47NlTDxWQD-10" value="&lt;font style=&quot;font-size: 29px;&quot;&gt;F&lt;/font&gt;" style="ellipse;whiteSpace=wrap;html=1;aspect=fixed;" vertex="1" parent="1">
          <mxGeometry x="420" y="480" width="80" height="80" as="geometry" />
        </mxCell>
        <mxCell id="1f2FrhAZtQ47NlTDxWQD-12" value="" style="shape=table;startSize=0;container=1;collapsible=0;childLayout=tableLayout;fontSize=20;" vertex="1" parent="1">
          <mxGeometry x="620" y="240" width="120" height="320" as="geometry" />
        </mxCell>
        <mxCell id="1f2FrhAZtQ47NlTDxWQD-13" value="" style="shape=tableRow;horizontal=0;startSize=0;swimlaneHead=0;swimlaneBody=0;strokeColor=inherit;top=0;left=0;bottom=0;right=0;collapsible=0;dropTarget=0;fillColor=none;points=[[0,0.5],[1,0.5]];portConstraint=eastwest;fontSize=16;" vertex="1" parent="1f2FrhAZtQ47NlTDxWQD-12">
          <mxGeometry width="120" height="46" as="geometry" />
        </mxCell>
        <mxCell id="1f2FrhAZtQ47NlTDxWQD-14" value="A" style="shape=partialRectangle;html=1;whiteSpace=wrap;connectable=0;strokeColor=inherit;overflow=hidden;fillColor=none;top=0;left=0;bottom=0;right=0;pointerEvents=1;fontSize=24;" vertex="1" parent="1f2FrhAZtQ47NlTDxWQD-13">
          <mxGeometry width="120" height="46" as="geometry">
            <mxRectangle width="120" height="46" as="alternateBounds" />
          </mxGeometry>
        </mxCell>
        <mxCell id="1f2FrhAZtQ47NlTDxWQD-17" value="" style="shape=tableRow;horizontal=0;startSize=0;swimlaneHead=0;swimlaneBody=0;strokeColor=inherit;top=0;left=0;bottom=0;right=0;collapsible=0;dropTarget=0;fillColor=none;points=[[0,0.5],[1,0.5]];portConstraint=eastwest;fontSize=16;" vertex="1" parent="1f2FrhAZtQ47NlTDxWQD-12">
          <mxGeometry y="46" width="120" height="45" as="geometry" />
        </mxCell>
        <mxCell id="1f2FrhAZtQ47NlTDxWQD-18" value="B" style="shape=partialRectangle;html=1;whiteSpace=wrap;connectable=0;strokeColor=#6c8ebf;overflow=hidden;fillColor=#ebf3ff;top=0;left=0;bottom=0;right=0;pointerEvents=1;fontSize=24;" vertex="1" parent="1f2FrhAZtQ47NlTDxWQD-17">
          <mxGeometry width="120" height="45" as="geometry">
            <mxRectangle width="120" height="45" as="alternateBounds" />
          </mxGeometry>
        </mxCell>
        <mxCell id="1f2FrhAZtQ47NlTDxWQD-21" value="" style="shape=tableRow;horizontal=0;startSize=0;swimlaneHead=0;swimlaneBody=0;strokeColor=inherit;top=0;left=0;bottom=0;right=0;collapsible=0;dropTarget=0;fillColor=none;points=[[0,0.5],[1,0.5]];portConstraint=eastwest;fontSize=16;" vertex="1" parent="1f2FrhAZtQ47NlTDxWQD-12">
          <mxGeometry y="91" width="120" height="46" as="geometry" />
        </mxCell>
        <mxCell id="1f2FrhAZtQ47NlTDxWQD-22" value="C" style="shape=partialRectangle;html=1;whiteSpace=wrap;connectable=0;strokeColor=#6c8ebf;overflow=hidden;fillColor=#ebf3ff;top=0;left=0;bottom=0;right=0;pointerEvents=1;fontSize=24;" vertex="1" parent="1f2FrhAZtQ47NlTDxWQD-21">
          <mxGeometry width="120" height="46" as="geometry">
            <mxRectangle width="120" height="46" as="alternateBounds" />
          </mxGeometry>
        </mxCell>
        <mxCell id="1f2FrhAZtQ47NlTDxWQD-25" style="shape=tableRow;horizontal=0;startSize=0;swimlaneHead=0;swimlaneBody=0;strokeColor=inherit;top=0;left=0;bottom=0;right=0;collapsible=0;dropTarget=0;fillColor=none;points=[[0,0.5],[1,0.5]];portConstraint=eastwest;fontSize=16;" vertex="1" parent="1f2FrhAZtQ47NlTDxWQD-12">
          <mxGeometry y="137" width="120" height="46" as="geometry" />
        </mxCell>
        <mxCell id="1f2FrhAZtQ47NlTDxWQD-26" value="D" style="shape=partialRectangle;html=1;whiteSpace=wrap;connectable=0;strokeColor=#6c8ebf;overflow=hidden;fillColor=#dae8fc;top=0;left=0;bottom=0;right=0;pointerEvents=1;fontSize=24;" vertex="1" parent="1f2FrhAZtQ47NlTDxWQD-25">
          <mxGeometry width="120" height="46" as="geometry">
            <mxRectangle width="120" height="46" as="alternateBounds" />
          </mxGeometry>
        </mxCell>
        <mxCell id="1f2FrhAZtQ47NlTDxWQD-27" style="shape=tableRow;horizontal=0;startSize=0;swimlaneHead=0;swimlaneBody=0;strokeColor=inherit;top=0;left=0;bottom=0;right=0;collapsible=0;dropTarget=0;fillColor=none;points=[[0,0.5],[1,0.5]];portConstraint=eastwest;fontSize=16;" vertex="1" parent="1f2FrhAZtQ47NlTDxWQD-12">
          <mxGeometry y="183" width="120" height="46" as="geometry" />
        </mxCell>
        <mxCell id="1f2FrhAZtQ47NlTDxWQD-28" value="E" style="shape=partialRectangle;html=1;whiteSpace=wrap;connectable=0;strokeColor=#6c8ebf;overflow=hidden;fillColor=#dae8fc;top=0;left=0;bottom=0;right=0;pointerEvents=1;fontSize=24;" vertex="1" parent="1f2FrhAZtQ47NlTDxWQD-27">
          <mxGeometry width="120" height="46" as="geometry">
            <mxRectangle width="120" height="46" as="alternateBounds" />
          </mxGeometry>
        </mxCell>
        <mxCell id="1f2FrhAZtQ47NlTDxWQD-29" style="shape=tableRow;horizontal=0;startSize=0;swimlaneHead=0;swimlaneBody=0;strokeColor=inherit;top=0;left=0;bottom=0;right=0;collapsible=0;dropTarget=0;fillColor=none;points=[[0,0.5],[1,0.5]];portConstraint=eastwest;fontSize=16;" vertex="1" parent="1f2FrhAZtQ47NlTDxWQD-12">
          <mxGeometry y="229" width="120" height="45" as="geometry" />
        </mxCell>
        <mxCell id="1f2FrhAZtQ47NlTDxWQD-30" value="-" style="shape=partialRectangle;html=1;whiteSpace=wrap;connectable=0;strokeColor=#6c8ebf;overflow=hidden;fillColor=#dae8fc;top=0;left=0;bottom=0;right=0;pointerEvents=1;fontSize=24;" vertex="1" parent="1f2FrhAZtQ47NlTDxWQD-29">
          <mxGeometry width="120" height="45" as="geometry">
            <mxRectangle width="120" height="45" as="alternateBounds" />
          </mxGeometry>
        </mxCell>
        <mxCell id="1f2FrhAZtQ47NlTDxWQD-31" style="shape=tableRow;horizontal=0;startSize=0;swimlaneHead=0;swimlaneBody=0;strokeColor=inherit;top=0;left=0;bottom=0;right=0;collapsible=0;dropTarget=0;fillColor=none;points=[[0,0.5],[1,0.5]];portConstraint=eastwest;fontSize=16;" vertex="1" parent="1f2FrhAZtQ47NlTDxWQD-12">
          <mxGeometry y="274" width="120" height="46" as="geometry" />
        </mxCell>
        <mxCell id="1f2FrhAZtQ47NlTDxWQD-32" value="F" style="shape=partialRectangle;html=1;whiteSpace=wrap;connectable=0;strokeColor=#6c8ebf;overflow=hidden;fillColor=#dae8fc;top=0;left=0;bottom=0;right=0;pointerEvents=1;fontSize=24;" vertex="1" parent="1f2FrhAZtQ47NlTDxWQD-31">
          <mxGeometry width="120" height="46" as="geometry">
            <mxRectangle width="120" height="46" as="alternateBounds" />
          </mxGeometry>
        </mxCell>
        <mxCell id="1f2FrhAZtQ47NlTDxWQD-33" style="rounded=0;orthogonalLoop=1;jettySize=auto;html=1;exitX=0.5;exitY=1;exitDx=0;exitDy=0;entryX=0.5;entryY=0;entryDx=0;entryDy=0;endArrow=none;endFill=0;" edge="1" parent="1" source="1f2FrhAZtQ47NlTDxWQD-35" target="1f2FrhAZtQ47NlTDxWQD-38">
          <mxGeometry relative="1" as="geometry" />
        </mxCell>
        <mxCell id="1f2FrhAZtQ47NlTDxWQD-35" value="&lt;font style=&quot;font-size: 29px;&quot;&gt;A&lt;/font&gt;" style="ellipse;whiteSpace=wrap;html=1;aspect=fixed;" vertex="1" parent="1">
          <mxGeometry x="990" y="255" width="80" height="80" as="geometry" />
        </mxCell>
        <mxCell id="1f2FrhAZtQ47NlTDxWQD-36" style="rounded=0;orthogonalLoop=1;jettySize=auto;html=1;exitX=0.5;exitY=1;exitDx=0;exitDy=0;entryX=0.5;entryY=0;entryDx=0;entryDy=0;endArrow=none;endFill=0;" edge="1" parent="1" source="1f2FrhAZtQ47NlTDxWQD-38" target="1f2FrhAZtQ47NlTDxWQD-41">
          <mxGeometry relative="1" as="geometry" />
        </mxCell>
        <mxCell id="1f2FrhAZtQ47NlTDxWQD-38" value="&lt;font style=&quot;font-size: 29px;&quot;&gt;B&lt;/font&gt;" style="ellipse;whiteSpace=wrap;html=1;aspect=fixed;" vertex="1" parent="1">
          <mxGeometry x="910" y="375" width="80" height="80" as="geometry" />
        </mxCell>
        <mxCell id="1f2FrhAZtQ47NlTDxWQD-41" value="&lt;font style=&quot;font-size: 29px;&quot;&gt;D&lt;/font&gt;" style="ellipse;whiteSpace=wrap;html=1;aspect=fixed;" vertex="1" parent="1">
          <mxGeometry x="830" y="495" width="80" height="80" as="geometry" />
        </mxCell>
        <mxCell id="1f2FrhAZtQ47NlTDxWQD-44" value="" style="shape=table;startSize=0;container=1;collapsible=0;childLayout=tableLayout;fontSize=20;" vertex="1" parent="1">
          <mxGeometry x="1350" y="255" width="120" height="320" as="geometry" />
        </mxCell>
        <mxCell id="1f2FrhAZtQ47NlTDxWQD-45" value="" style="shape=tableRow;horizontal=0;startSize=0;swimlaneHead=0;swimlaneBody=0;strokeColor=inherit;top=0;left=0;bottom=0;right=0;collapsible=0;dropTarget=0;fillColor=none;points=[[0,0.5],[1,0.5]];portConstraint=eastwest;fontSize=16;" vertex="1" parent="1f2FrhAZtQ47NlTDxWQD-44">
          <mxGeometry width="120" height="46" as="geometry" />
        </mxCell>
        <mxCell id="1f2FrhAZtQ47NlTDxWQD-46" value="A" style="shape=partialRectangle;html=1;whiteSpace=wrap;connectable=0;strokeColor=inherit;overflow=hidden;fillColor=none;top=0;left=0;bottom=0;right=0;pointerEvents=1;fontSize=24;" vertex="1" parent="1f2FrhAZtQ47NlTDxWQD-45">
          <mxGeometry width="120" height="46" as="geometry">
            <mxRectangle width="120" height="46" as="alternateBounds" />
          </mxGeometry>
        </mxCell>
        <mxCell id="1f2FrhAZtQ47NlTDxWQD-47" value="" style="shape=tableRow;horizontal=0;startSize=0;swimlaneHead=0;swimlaneBody=0;strokeColor=inherit;top=0;left=0;bottom=0;right=0;collapsible=0;dropTarget=0;fillColor=none;points=[[0,0.5],[1,0.5]];portConstraint=eastwest;fontSize=16;" vertex="1" parent="1f2FrhAZtQ47NlTDxWQD-44">
          <mxGeometry y="46" width="120" height="45" as="geometry" />
        </mxCell>
        <mxCell id="1f2FrhAZtQ47NlTDxWQD-48" value="B" style="shape=partialRectangle;html=1;whiteSpace=wrap;connectable=0;strokeColor=#6c8ebf;overflow=hidden;fillColor=#ebf3ff;top=0;left=0;bottom=0;right=0;pointerEvents=1;fontSize=24;" vertex="1" parent="1f2FrhAZtQ47NlTDxWQD-47">
          <mxGeometry width="120" height="45" as="geometry">
            <mxRectangle width="120" height="45" as="alternateBounds" />
          </mxGeometry>
        </mxCell>
        <mxCell id="1f2FrhAZtQ47NlTDxWQD-49" value="" style="shape=tableRow;horizontal=0;startSize=0;swimlaneHead=0;swimlaneBody=0;strokeColor=inherit;top=0;left=0;bottom=0;right=0;collapsible=0;dropTarget=0;fillColor=none;points=[[0,0.5],[1,0.5]];portConstraint=eastwest;fontSize=16;" vertex="1" parent="1f2FrhAZtQ47NlTDxWQD-44">
          <mxGeometry y="91" width="120" height="46" as="geometry" />
        </mxCell>
        <mxCell id="1f2FrhAZtQ47NlTDxWQD-50" value="-" style="shape=partialRectangle;html=1;whiteSpace=wrap;connectable=0;strokeColor=#6c8ebf;overflow=hidden;fillColor=#ebf3ff;top=0;left=0;bottom=0;right=0;pointerEvents=1;fontSize=24;" vertex="1" parent="1f2FrhAZtQ47NlTDxWQD-49">
          <mxGeometry width="120" height="46" as="geometry">
            <mxRectangle width="120" height="46" as="alternateBounds" />
          </mxGeometry>
        </mxCell>
        <mxCell id="1f2FrhAZtQ47NlTDxWQD-51" style="shape=tableRow;horizontal=0;startSize=0;swimlaneHead=0;swimlaneBody=0;strokeColor=inherit;top=0;left=0;bottom=0;right=0;collapsible=0;dropTarget=0;fillColor=none;points=[[0,0.5],[1,0.5]];portConstraint=eastwest;fontSize=16;" vertex="1" parent="1f2FrhAZtQ47NlTDxWQD-44">
          <mxGeometry y="137" width="120" height="46" as="geometry" />
        </mxCell>
        <mxCell id="1f2FrhAZtQ47NlTDxWQD-52" value="D" style="shape=partialRectangle;html=1;whiteSpace=wrap;connectable=0;strokeColor=#6c8ebf;overflow=hidden;fillColor=#dae8fc;top=0;left=0;bottom=0;right=0;pointerEvents=1;fontSize=24;" vertex="1" parent="1f2FrhAZtQ47NlTDxWQD-51">
          <mxGeometry width="120" height="46" as="geometry">
            <mxRectangle width="120" height="46" as="alternateBounds" />
          </mxGeometry>
        </mxCell>
        <mxCell id="1f2FrhAZtQ47NlTDxWQD-53" style="shape=tableRow;horizontal=0;startSize=0;swimlaneHead=0;swimlaneBody=0;strokeColor=inherit;top=0;left=0;bottom=0;right=0;collapsible=0;dropTarget=0;fillColor=none;points=[[0,0.5],[1,0.5]];portConstraint=eastwest;fontSize=16;" vertex="1" parent="1f2FrhAZtQ47NlTDxWQD-44">
          <mxGeometry y="183" width="120" height="46" as="geometry" />
        </mxCell>
        <mxCell id="1f2FrhAZtQ47NlTDxWQD-54" value="-" style="shape=partialRectangle;html=1;whiteSpace=wrap;connectable=0;strokeColor=#6c8ebf;overflow=hidden;fillColor=#dae8fc;top=0;left=0;bottom=0;right=0;pointerEvents=1;fontSize=24;" vertex="1" parent="1f2FrhAZtQ47NlTDxWQD-53">
          <mxGeometry width="120" height="46" as="geometry">
            <mxRectangle width="120" height="46" as="alternateBounds" />
          </mxGeometry>
        </mxCell>
        <mxCell id="1f2FrhAZtQ47NlTDxWQD-55" style="shape=tableRow;horizontal=0;startSize=0;swimlaneHead=0;swimlaneBody=0;strokeColor=inherit;top=0;left=0;bottom=0;right=0;collapsible=0;dropTarget=0;fillColor=none;points=[[0,0.5],[1,0.5]];portConstraint=eastwest;fontSize=16;" vertex="1" parent="1f2FrhAZtQ47NlTDxWQD-44">
          <mxGeometry y="229" width="120" height="45" as="geometry" />
        </mxCell>
        <mxCell id="1f2FrhAZtQ47NlTDxWQD-56" value="-" style="shape=partialRectangle;html=1;whiteSpace=wrap;connectable=0;strokeColor=#6c8ebf;overflow=hidden;fillColor=#dae8fc;top=0;left=0;bottom=0;right=0;pointerEvents=1;fontSize=24;" vertex="1" parent="1f2FrhAZtQ47NlTDxWQD-55">
          <mxGeometry width="120" height="45" as="geometry">
            <mxRectangle width="120" height="45" as="alternateBounds" />
          </mxGeometry>
        </mxCell>
        <mxCell id="1f2FrhAZtQ47NlTDxWQD-57" style="shape=tableRow;horizontal=0;startSize=0;swimlaneHead=0;swimlaneBody=0;strokeColor=inherit;top=0;left=0;bottom=0;right=0;collapsible=0;dropTarget=0;fillColor=none;points=[[0,0.5],[1,0.5]];portConstraint=eastwest;fontSize=16;" vertex="1" parent="1f2FrhAZtQ47NlTDxWQD-44">
          <mxGeometry y="274" width="120" height="46" as="geometry" />
        </mxCell>
        <mxCell id="1f2FrhAZtQ47NlTDxWQD-58" value="-" style="shape=partialRectangle;html=1;whiteSpace=wrap;connectable=0;strokeColor=#6c8ebf;overflow=hidden;fillColor=#dae8fc;top=0;left=0;bottom=0;right=0;pointerEvents=1;fontSize=24;" vertex="1" parent="1f2FrhAZtQ47NlTDxWQD-57">
          <mxGeometry width="120" height="46" as="geometry">
            <mxRectangle width="120" height="46" as="alternateBounds" />
          </mxGeometry>
        </mxCell>
        <mxCell id="1f2FrhAZtQ47NlTDxWQD-64" value="" style="rounded=0;whiteSpace=wrap;html=1;" vertex="1" parent="1">
          <mxGeometry x="30" y="670" width="1540" height="950" as="geometry" />
        </mxCell>
        <mxCell id="1f2FrhAZtQ47NlTDxWQD-65" value="" style="rounded=0;whiteSpace=wrap;html=1;" vertex="1" parent="1">
          <mxGeometry x="60" y="1145" width="1050" height="430" as="geometry" />
        </mxCell>
        <mxCell id="1f2FrhAZtQ47NlTDxWQD-66" value="" style="rounded=0;whiteSpace=wrap;html=1;" vertex="1" parent="1">
          <mxGeometry x="60" y="715" width="1050" height="430" as="geometry" />
        </mxCell>
        <mxCell id="1f2FrhAZtQ47NlTDxWQD-67" style="rounded=0;orthogonalLoop=1;jettySize=auto;html=1;exitX=0.5;exitY=1;exitDx=0;exitDy=0;entryX=0.5;entryY=0;entryDx=0;entryDy=0;endArrow=none;endFill=0;" edge="1" parent="1" source="1f2FrhAZtQ47NlTDxWQD-69" target="1f2FrhAZtQ47NlTDxWQD-72">
          <mxGeometry relative="1" as="geometry" />
        </mxCell>
        <mxCell id="1f2FrhAZtQ47NlTDxWQD-68" style="rounded=0;orthogonalLoop=1;jettySize=auto;html=1;exitX=0.5;exitY=1;exitDx=0;exitDy=0;entryX=0.5;entryY=0;entryDx=0;entryDy=0;endArrow=none;endFill=0;" edge="1" parent="1" source="1f2FrhAZtQ47NlTDxWQD-69" target="1f2FrhAZtQ47NlTDxWQD-74">
          <mxGeometry relative="1" as="geometry" />
        </mxCell>
        <mxCell id="1f2FrhAZtQ47NlTDxWQD-69" value="&lt;font style=&quot;font-size: 29px;&quot;&gt;A&lt;/font&gt;" style="ellipse;whiteSpace=wrap;html=1;aspect=fixed;" vertex="1" parent="1">
          <mxGeometry x="260" y="755" width="80" height="80" as="geometry" />
        </mxCell>
        <mxCell id="1f2FrhAZtQ47NlTDxWQD-70" style="rounded=0;orthogonalLoop=1;jettySize=auto;html=1;exitX=0.5;exitY=1;exitDx=0;exitDy=0;entryX=0.5;entryY=0;entryDx=0;entryDy=0;endArrow=none;endFill=0;" edge="1" parent="1" source="1f2FrhAZtQ47NlTDxWQD-72" target="1f2FrhAZtQ47NlTDxWQD-75">
          <mxGeometry relative="1" as="geometry" />
        </mxCell>
        <mxCell id="1f2FrhAZtQ47NlTDxWQD-71" style="rounded=0;orthogonalLoop=1;jettySize=auto;html=1;exitX=0.5;exitY=1;exitDx=0;exitDy=0;entryX=0.5;entryY=0;entryDx=0;entryDy=0;endArrow=none;endFill=0;" edge="1" parent="1" source="1f2FrhAZtQ47NlTDxWQD-72" target="1f2FrhAZtQ47NlTDxWQD-76">
          <mxGeometry relative="1" as="geometry" />
        </mxCell>
        <mxCell id="1f2FrhAZtQ47NlTDxWQD-72" value="&lt;font style=&quot;font-size: 29px;&quot;&gt;B&lt;/font&gt;" style="ellipse;whiteSpace=wrap;html=1;aspect=fixed;" vertex="1" parent="1">
          <mxGeometry x="180" y="875" width="80" height="80" as="geometry" />
        </mxCell>
        <mxCell id="1f2FrhAZtQ47NlTDxWQD-73" style="rounded=0;orthogonalLoop=1;jettySize=auto;html=1;exitX=0.5;exitY=1;exitDx=0;exitDy=0;entryX=0.5;entryY=0;entryDx=0;entryDy=0;endArrow=none;endFill=0;" edge="1" parent="1" source="1f2FrhAZtQ47NlTDxWQD-74" target="1f2FrhAZtQ47NlTDxWQD-77">
          <mxGeometry relative="1" as="geometry" />
        </mxCell>
        <mxCell id="1f2FrhAZtQ47NlTDxWQD-74" value="&lt;font style=&quot;font-size: 29px;&quot;&gt;C&lt;/font&gt;" style="ellipse;whiteSpace=wrap;html=1;aspect=fixed;" vertex="1" parent="1">
          <mxGeometry x="340" y="875" width="80" height="80" as="geometry" />
        </mxCell>
        <mxCell id="1f2FrhAZtQ47NlTDxWQD-75" value="&lt;font style=&quot;font-size: 29px;&quot;&gt;D&lt;/font&gt;" style="ellipse;whiteSpace=wrap;html=1;aspect=fixed;" vertex="1" parent="1">
          <mxGeometry x="100" y="995" width="80" height="80" as="geometry" />
        </mxCell>
        <mxCell id="1f2FrhAZtQ47NlTDxWQD-76" value="&lt;font style=&quot;font-size: 29px;&quot;&gt;E&lt;/font&gt;" style="ellipse;whiteSpace=wrap;html=1;aspect=fixed;" vertex="1" parent="1">
          <mxGeometry x="260" y="995" width="80" height="80" as="geometry" />
        </mxCell>
        <mxCell id="1f2FrhAZtQ47NlTDxWQD-77" value="&lt;font style=&quot;font-size: 29px;&quot;&gt;F&lt;/font&gt;" style="ellipse;whiteSpace=wrap;html=1;aspect=fixed;" vertex="1" parent="1">
          <mxGeometry x="420" y="995" width="80" height="80" as="geometry" />
        </mxCell>
        <mxCell id="1f2FrhAZtQ47NlTDxWQD-93" style="rounded=0;orthogonalLoop=1;jettySize=auto;html=1;exitX=0.5;exitY=1;exitDx=0;exitDy=0;entryX=0.5;entryY=0;entryDx=0;entryDy=0;endArrow=none;endFill=0;" edge="1" parent="1" source="1f2FrhAZtQ47NlTDxWQD-94" target="1f2FrhAZtQ47NlTDxWQD-96">
          <mxGeometry relative="1" as="geometry" />
        </mxCell>
        <mxCell id="1f2FrhAZtQ47NlTDxWQD-94" value="&lt;font style=&quot;font-size: 29px;&quot;&gt;A&lt;/font&gt;" style="ellipse;whiteSpace=wrap;html=1;aspect=fixed;" vertex="1" parent="1">
          <mxGeometry x="260" y="1185" width="80" height="80" as="geometry" />
        </mxCell>
        <mxCell id="1f2FrhAZtQ47NlTDxWQD-95" style="rounded=0;orthogonalLoop=1;jettySize=auto;html=1;exitX=0.5;exitY=1;exitDx=0;exitDy=0;entryX=0.5;entryY=0;entryDx=0;entryDy=0;endArrow=none;endFill=0;" edge="1" parent="1" source="1f2FrhAZtQ47NlTDxWQD-96" target="1f2FrhAZtQ47NlTDxWQD-97">
          <mxGeometry relative="1" as="geometry" />
        </mxCell>
        <mxCell id="1f2FrhAZtQ47NlTDxWQD-96" value="&lt;font style=&quot;font-size: 29px;&quot;&gt;B&lt;/font&gt;" style="ellipse;whiteSpace=wrap;html=1;aspect=fixed;" vertex="1" parent="1">
          <mxGeometry x="180" y="1305" width="80" height="80" as="geometry" />
        </mxCell>
        <mxCell id="1f2FrhAZtQ47NlTDxWQD-97" value="&lt;font style=&quot;font-size: 29px;&quot;&gt;D&lt;/font&gt;" style="ellipse;whiteSpace=wrap;html=1;aspect=fixed;" vertex="1" parent="1">
          <mxGeometry x="100" y="1425" width="80" height="80" as="geometry" />
        </mxCell>
        <mxCell id="1f2FrhAZtQ47NlTDxWQD-113" value="" style="shape=table;startSize=0;container=1;collapsible=0;childLayout=tableLayout;fontSize=16;" vertex="1" parent="1">
          <mxGeometry x="730" y="767.5" width="180" height="40" as="geometry" />
        </mxCell>
        <mxCell id="1f2FrhAZtQ47NlTDxWQD-114" value="" style="shape=tableRow;horizontal=0;startSize=0;swimlaneHead=0;swimlaneBody=0;strokeColor=inherit;top=0;left=0;bottom=0;right=0;collapsible=0;dropTarget=0;fillColor=none;points=[[0,0.5],[1,0.5]];portConstraint=eastwest;fontSize=16;" vertex="1" parent="1f2FrhAZtQ47NlTDxWQD-113">
          <mxGeometry width="180" height="40" as="geometry" />
        </mxCell>
        <mxCell id="1f2FrhAZtQ47NlTDxWQD-115" value="ptr" style="shape=partialRectangle;html=1;whiteSpace=wrap;connectable=0;strokeColor=#6c8ebf;overflow=hidden;fillColor=#dae8fc;top=0;left=0;bottom=0;right=0;pointerEvents=1;fontSize=16;" vertex="1" parent="1f2FrhAZtQ47NlTDxWQD-114">
          <mxGeometry width="60" height="40" as="geometry">
            <mxRectangle width="60" height="40" as="alternateBounds" />
          </mxGeometry>
        </mxCell>
        <mxCell id="1f2FrhAZtQ47NlTDxWQD-116" value="A" style="shape=partialRectangle;html=1;whiteSpace=wrap;connectable=0;strokeColor=#d6b656;overflow=hidden;fillColor=#fff2cc;top=0;left=0;bottom=0;right=0;pointerEvents=1;fontSize=16;" vertex="1" parent="1f2FrhAZtQ47NlTDxWQD-114">
          <mxGeometry x="60" width="60" height="40" as="geometry">
            <mxRectangle width="60" height="40" as="alternateBounds" />
          </mxGeometry>
        </mxCell>
        <mxCell id="1f2FrhAZtQ47NlTDxWQD-117" value="ptr" style="shape=partialRectangle;html=1;whiteSpace=wrap;connectable=0;strokeColor=#6c8ebf;overflow=hidden;fillColor=#dae8fc;top=0;left=0;bottom=0;right=0;pointerEvents=1;fontSize=16;" vertex="1" parent="1f2FrhAZtQ47NlTDxWQD-114">
          <mxGeometry x="120" width="60" height="40" as="geometry">
            <mxRectangle width="60" height="40" as="alternateBounds" />
          </mxGeometry>
        </mxCell>
        <mxCell id="1f2FrhAZtQ47NlTDxWQD-126" value="" style="shape=table;startSize=0;container=1;collapsible=0;childLayout=tableLayout;fontSize=16;" vertex="1" parent="1">
          <mxGeometry x="610" y="847.5" width="180" height="40" as="geometry" />
        </mxCell>
        <mxCell id="1f2FrhAZtQ47NlTDxWQD-127" value="" style="shape=tableRow;horizontal=0;startSize=0;swimlaneHead=0;swimlaneBody=0;strokeColor=inherit;top=0;left=0;bottom=0;right=0;collapsible=0;dropTarget=0;fillColor=none;points=[[0,0.5],[1,0.5]];portConstraint=eastwest;fontSize=16;" vertex="1" parent="1f2FrhAZtQ47NlTDxWQD-126">
          <mxGeometry width="180" height="40" as="geometry" />
        </mxCell>
        <mxCell id="1f2FrhAZtQ47NlTDxWQD-128" value="ptr" style="shape=partialRectangle;html=1;whiteSpace=wrap;connectable=0;strokeColor=#6c8ebf;overflow=hidden;fillColor=#dae8fc;top=0;left=0;bottom=0;right=0;pointerEvents=1;fontSize=16;" vertex="1" parent="1f2FrhAZtQ47NlTDxWQD-127">
          <mxGeometry width="60" height="40" as="geometry">
            <mxRectangle width="60" height="40" as="alternateBounds" />
          </mxGeometry>
        </mxCell>
        <mxCell id="1f2FrhAZtQ47NlTDxWQD-129" value="B" style="shape=partialRectangle;html=1;whiteSpace=wrap;connectable=0;strokeColor=#d6b656;overflow=hidden;fillColor=#fff2cc;top=0;left=0;bottom=0;right=0;pointerEvents=1;fontSize=16;" vertex="1" parent="1f2FrhAZtQ47NlTDxWQD-127">
          <mxGeometry x="60" width="60" height="40" as="geometry">
            <mxRectangle width="60" height="40" as="alternateBounds" />
          </mxGeometry>
        </mxCell>
        <mxCell id="1f2FrhAZtQ47NlTDxWQD-130" value="ptr" style="shape=partialRectangle;html=1;whiteSpace=wrap;connectable=0;strokeColor=#6c8ebf;overflow=hidden;fillColor=#dae8fc;top=0;left=0;bottom=0;right=0;pointerEvents=1;fontSize=16;" vertex="1" parent="1f2FrhAZtQ47NlTDxWQD-127">
          <mxGeometry x="120" width="60" height="40" as="geometry">
            <mxRectangle width="60" height="40" as="alternateBounds" />
          </mxGeometry>
        </mxCell>
        <mxCell id="1f2FrhAZtQ47NlTDxWQD-131" value="" style="shape=table;startSize=0;container=1;collapsible=0;childLayout=tableLayout;fontSize=16;" vertex="1" parent="1">
          <mxGeometry x="850" y="847.5" width="180" height="40" as="geometry" />
        </mxCell>
        <mxCell id="1f2FrhAZtQ47NlTDxWQD-132" value="" style="shape=tableRow;horizontal=0;startSize=0;swimlaneHead=0;swimlaneBody=0;strokeColor=inherit;top=0;left=0;bottom=0;right=0;collapsible=0;dropTarget=0;fillColor=none;points=[[0,0.5],[1,0.5]];portConstraint=eastwest;fontSize=16;" vertex="1" parent="1f2FrhAZtQ47NlTDxWQD-131">
          <mxGeometry width="180" height="40" as="geometry" />
        </mxCell>
        <mxCell id="1f2FrhAZtQ47NlTDxWQD-133" value="ptr" style="shape=partialRectangle;html=1;whiteSpace=wrap;connectable=0;strokeColor=#6c8ebf;overflow=hidden;fillColor=#dae8fc;top=0;left=0;bottom=0;right=0;pointerEvents=1;fontSize=16;" vertex="1" parent="1f2FrhAZtQ47NlTDxWQD-132">
          <mxGeometry width="60" height="40" as="geometry">
            <mxRectangle width="60" height="40" as="alternateBounds" />
          </mxGeometry>
        </mxCell>
        <mxCell id="1f2FrhAZtQ47NlTDxWQD-134" value="C" style="shape=partialRectangle;html=1;whiteSpace=wrap;connectable=0;strokeColor=#d6b656;overflow=hidden;fillColor=#fff2cc;top=0;left=0;bottom=0;right=0;pointerEvents=1;fontSize=16;" vertex="1" parent="1f2FrhAZtQ47NlTDxWQD-132">
          <mxGeometry x="60" width="60" height="40" as="geometry">
            <mxRectangle width="60" height="40" as="alternateBounds" />
          </mxGeometry>
        </mxCell>
        <mxCell id="1f2FrhAZtQ47NlTDxWQD-135" value="ptr" style="shape=partialRectangle;html=1;whiteSpace=wrap;connectable=0;strokeColor=#6c8ebf;overflow=hidden;fillColor=#dae8fc;top=0;left=0;bottom=0;right=0;pointerEvents=1;fontSize=16;" vertex="1" parent="1f2FrhAZtQ47NlTDxWQD-132">
          <mxGeometry x="120" width="60" height="40" as="geometry">
            <mxRectangle width="60" height="40" as="alternateBounds" />
          </mxGeometry>
        </mxCell>
        <mxCell id="1f2FrhAZtQ47NlTDxWQD-136" value="" style="shape=table;startSize=0;container=1;collapsible=0;childLayout=tableLayout;fontSize=16;" vertex="1" parent="1">
          <mxGeometry x="560" y="950" width="180" height="40" as="geometry" />
        </mxCell>
        <mxCell id="1f2FrhAZtQ47NlTDxWQD-137" value="" style="shape=tableRow;horizontal=0;startSize=0;swimlaneHead=0;swimlaneBody=0;strokeColor=inherit;top=0;left=0;bottom=0;right=0;collapsible=0;dropTarget=0;fillColor=none;points=[[0,0.5],[1,0.5]];portConstraint=eastwest;fontSize=16;" vertex="1" parent="1f2FrhAZtQ47NlTDxWQD-136">
          <mxGeometry width="180" height="40" as="geometry" />
        </mxCell>
        <mxCell id="1f2FrhAZtQ47NlTDxWQD-138" value="ptr" style="shape=partialRectangle;html=1;whiteSpace=wrap;connectable=0;strokeColor=#6c8ebf;overflow=hidden;fillColor=#dae8fc;top=0;left=0;bottom=0;right=0;pointerEvents=1;fontSize=16;" vertex="1" parent="1f2FrhAZtQ47NlTDxWQD-137">
          <mxGeometry width="60" height="40" as="geometry">
            <mxRectangle width="60" height="40" as="alternateBounds" />
          </mxGeometry>
        </mxCell>
        <mxCell id="1f2FrhAZtQ47NlTDxWQD-139" value="D" style="shape=partialRectangle;html=1;whiteSpace=wrap;connectable=0;strokeColor=#d6b656;overflow=hidden;fillColor=#fff2cc;top=0;left=0;bottom=0;right=0;pointerEvents=1;fontSize=16;" vertex="1" parent="1f2FrhAZtQ47NlTDxWQD-137">
          <mxGeometry x="60" width="60" height="40" as="geometry">
            <mxRectangle width="60" height="40" as="alternateBounds" />
          </mxGeometry>
        </mxCell>
        <mxCell id="1f2FrhAZtQ47NlTDxWQD-140" value="ptr" style="shape=partialRectangle;html=1;whiteSpace=wrap;connectable=0;strokeColor=#6c8ebf;overflow=hidden;fillColor=#dae8fc;top=0;left=0;bottom=0;right=0;pointerEvents=1;fontSize=16;" vertex="1" parent="1f2FrhAZtQ47NlTDxWQD-137">
          <mxGeometry x="120" width="60" height="40" as="geometry">
            <mxRectangle width="60" height="40" as="alternateBounds" />
          </mxGeometry>
        </mxCell>
        <mxCell id="1f2FrhAZtQ47NlTDxWQD-141" value="" style="shape=table;startSize=0;container=1;collapsible=0;childLayout=tableLayout;fontSize=16;" vertex="1" parent="1">
          <mxGeometry x="680" y="1020" width="180" height="40" as="geometry" />
        </mxCell>
        <mxCell id="1f2FrhAZtQ47NlTDxWQD-142" value="" style="shape=tableRow;horizontal=0;startSize=0;swimlaneHead=0;swimlaneBody=0;strokeColor=inherit;top=0;left=0;bottom=0;right=0;collapsible=0;dropTarget=0;fillColor=none;points=[[0,0.5],[1,0.5]];portConstraint=eastwest;fontSize=16;" vertex="1" parent="1f2FrhAZtQ47NlTDxWQD-141">
          <mxGeometry width="180" height="40" as="geometry" />
        </mxCell>
        <mxCell id="1f2FrhAZtQ47NlTDxWQD-143" value="ptr" style="shape=partialRectangle;html=1;whiteSpace=wrap;connectable=0;strokeColor=#6c8ebf;overflow=hidden;fillColor=#dae8fc;top=0;left=0;bottom=0;right=0;pointerEvents=1;fontSize=16;" vertex="1" parent="1f2FrhAZtQ47NlTDxWQD-142">
          <mxGeometry width="60" height="40" as="geometry">
            <mxRectangle width="60" height="40" as="alternateBounds" />
          </mxGeometry>
        </mxCell>
        <mxCell id="1f2FrhAZtQ47NlTDxWQD-144" value="E" style="shape=partialRectangle;html=1;whiteSpace=wrap;connectable=0;strokeColor=#d6b656;overflow=hidden;fillColor=#fff2cc;top=0;left=0;bottom=0;right=0;pointerEvents=1;fontSize=16;" vertex="1" parent="1f2FrhAZtQ47NlTDxWQD-142">
          <mxGeometry x="60" width="60" height="40" as="geometry">
            <mxRectangle width="60" height="40" as="alternateBounds" />
          </mxGeometry>
        </mxCell>
        <mxCell id="1f2FrhAZtQ47NlTDxWQD-145" value="ptr" style="shape=partialRectangle;html=1;whiteSpace=wrap;connectable=0;strokeColor=#6c8ebf;overflow=hidden;fillColor=#dae8fc;top=0;left=0;bottom=0;right=0;pointerEvents=1;fontSize=16;" vertex="1" parent="1f2FrhAZtQ47NlTDxWQD-142">
          <mxGeometry x="120" width="60" height="40" as="geometry">
            <mxRectangle width="60" height="40" as="alternateBounds" />
          </mxGeometry>
        </mxCell>
        <mxCell id="1f2FrhAZtQ47NlTDxWQD-146" value="" style="shape=table;startSize=0;container=1;collapsible=0;childLayout=tableLayout;fontSize=16;" vertex="1" parent="1">
          <mxGeometry x="850" y="955" width="180" height="40" as="geometry" />
        </mxCell>
        <mxCell id="1f2FrhAZtQ47NlTDxWQD-147" value="" style="shape=tableRow;horizontal=0;startSize=0;swimlaneHead=0;swimlaneBody=0;strokeColor=inherit;top=0;left=0;bottom=0;right=0;collapsible=0;dropTarget=0;fillColor=none;points=[[0,0.5],[1,0.5]];portConstraint=eastwest;fontSize=16;" vertex="1" parent="1f2FrhAZtQ47NlTDxWQD-146">
          <mxGeometry width="180" height="40" as="geometry" />
        </mxCell>
        <mxCell id="1f2FrhAZtQ47NlTDxWQD-148" value="ptr" style="shape=partialRectangle;html=1;whiteSpace=wrap;connectable=0;strokeColor=#6c8ebf;overflow=hidden;fillColor=#dae8fc;top=0;left=0;bottom=0;right=0;pointerEvents=1;fontSize=16;" vertex="1" parent="1f2FrhAZtQ47NlTDxWQD-147">
          <mxGeometry width="60" height="40" as="geometry">
            <mxRectangle width="60" height="40" as="alternateBounds" />
          </mxGeometry>
        </mxCell>
        <mxCell id="1f2FrhAZtQ47NlTDxWQD-149" value="F" style="shape=partialRectangle;html=1;whiteSpace=wrap;connectable=0;strokeColor=#d6b656;overflow=hidden;fillColor=#fff2cc;top=0;left=0;bottom=0;right=0;pointerEvents=1;fontSize=16;" vertex="1" parent="1f2FrhAZtQ47NlTDxWQD-147">
          <mxGeometry x="60" width="60" height="40" as="geometry">
            <mxRectangle width="60" height="40" as="alternateBounds" />
          </mxGeometry>
        </mxCell>
        <mxCell id="1f2FrhAZtQ47NlTDxWQD-150" value="ptr" style="shape=partialRectangle;html=1;whiteSpace=wrap;connectable=0;strokeColor=#6c8ebf;overflow=hidden;fillColor=#dae8fc;top=0;left=0;bottom=0;right=0;pointerEvents=1;fontSize=16;" vertex="1" parent="1f2FrhAZtQ47NlTDxWQD-147">
          <mxGeometry x="120" width="60" height="40" as="geometry">
            <mxRectangle width="60" height="40" as="alternateBounds" />
          </mxGeometry>
        </mxCell>
        <mxCell id="1f2FrhAZtQ47NlTDxWQD-151" style="edgeStyle=orthogonalEdgeStyle;rounded=0;orthogonalLoop=1;jettySize=auto;html=1;curved=1;exitX=0.167;exitY=0.988;exitDx=0;exitDy=0;exitPerimeter=0;" edge="1" parent="1" source="1f2FrhAZtQ47NlTDxWQD-113" target="1f2FrhAZtQ47NlTDxWQD-126">
          <mxGeometry relative="1" as="geometry" />
        </mxCell>
        <mxCell id="1f2FrhAZtQ47NlTDxWQD-152" style="edgeStyle=orthogonalEdgeStyle;rounded=0;orthogonalLoop=1;jettySize=auto;html=1;exitX=0.828;exitY=1.063;exitDx=0;exitDy=0;entryX=0.5;entryY=0;entryDx=0;entryDy=0;exitPerimeter=0;curved=1;" edge="1" parent="1" source="1f2FrhAZtQ47NlTDxWQD-113" target="1f2FrhAZtQ47NlTDxWQD-131">
          <mxGeometry relative="1" as="geometry" />
        </mxCell>
        <mxCell id="1f2FrhAZtQ47NlTDxWQD-153" style="edgeStyle=orthogonalEdgeStyle;rounded=0;orthogonalLoop=1;jettySize=auto;html=1;exitX=0.194;exitY=1.013;exitDx=0;exitDy=0;entryX=0.5;entryY=0;entryDx=0;entryDy=0;exitPerimeter=0;curved=1;" edge="1" parent="1" source="1f2FrhAZtQ47NlTDxWQD-127" target="1f2FrhAZtQ47NlTDxWQD-136">
          <mxGeometry relative="1" as="geometry" />
        </mxCell>
        <mxCell id="1f2FrhAZtQ47NlTDxWQD-154" style="edgeStyle=orthogonalEdgeStyle;rounded=0;orthogonalLoop=1;jettySize=auto;html=1;exitX=0.833;exitY=1.013;exitDx=0;exitDy=0;entryX=0.5;entryY=0;entryDx=0;entryDy=0;exitPerimeter=0;curved=1;" edge="1" parent="1" source="1f2FrhAZtQ47NlTDxWQD-126" target="1f2FrhAZtQ47NlTDxWQD-141">
          <mxGeometry relative="1" as="geometry" />
        </mxCell>
        <mxCell id="1f2FrhAZtQ47NlTDxWQD-155" style="edgeStyle=orthogonalEdgeStyle;rounded=0;orthogonalLoop=1;jettySize=auto;html=1;exitX=0.822;exitY=1.063;exitDx=0;exitDy=0;entryX=0.5;entryY=0;entryDx=0;entryDy=0;curved=1;exitPerimeter=0;" edge="1" parent="1" source="1f2FrhAZtQ47NlTDxWQD-131" target="1f2FrhAZtQ47NlTDxWQD-146">
          <mxGeometry relative="1" as="geometry" />
        </mxCell>
        <mxCell id="1f2FrhAZtQ47NlTDxWQD-156" value="" style="shape=table;startSize=0;container=1;collapsible=0;childLayout=tableLayout;fontSize=16;" vertex="1" parent="1">
          <mxGeometry x="710" y="1205" width="180" height="40" as="geometry" />
        </mxCell>
        <mxCell id="1f2FrhAZtQ47NlTDxWQD-157" value="" style="shape=tableRow;horizontal=0;startSize=0;swimlaneHead=0;swimlaneBody=0;strokeColor=inherit;top=0;left=0;bottom=0;right=0;collapsible=0;dropTarget=0;fillColor=none;points=[[0,0.5],[1,0.5]];portConstraint=eastwest;fontSize=16;" vertex="1" parent="1f2FrhAZtQ47NlTDxWQD-156">
          <mxGeometry width="180" height="40" as="geometry" />
        </mxCell>
        <mxCell id="1f2FrhAZtQ47NlTDxWQD-158" value="ptr" style="shape=partialRectangle;html=1;whiteSpace=wrap;connectable=0;strokeColor=#6c8ebf;overflow=hidden;fillColor=#dae8fc;top=0;left=0;bottom=0;right=0;pointerEvents=1;fontSize=16;" vertex="1" parent="1f2FrhAZtQ47NlTDxWQD-157">
          <mxGeometry width="60" height="40" as="geometry">
            <mxRectangle width="60" height="40" as="alternateBounds" />
          </mxGeometry>
        </mxCell>
        <mxCell id="1f2FrhAZtQ47NlTDxWQD-159" value="A" style="shape=partialRectangle;html=1;whiteSpace=wrap;connectable=0;strokeColor=#d6b656;overflow=hidden;fillColor=#fff2cc;top=0;left=0;bottom=0;right=0;pointerEvents=1;fontSize=16;" vertex="1" parent="1f2FrhAZtQ47NlTDxWQD-157">
          <mxGeometry x="60" width="60" height="40" as="geometry">
            <mxRectangle width="60" height="40" as="alternateBounds" />
          </mxGeometry>
        </mxCell>
        <mxCell id="1f2FrhAZtQ47NlTDxWQD-160" value="ptr" style="shape=partialRectangle;html=1;whiteSpace=wrap;connectable=0;strokeColor=#6c8ebf;overflow=hidden;fillColor=#dae8fc;top=0;left=0;bottom=0;right=0;pointerEvents=1;fontSize=16;" vertex="1" parent="1f2FrhAZtQ47NlTDxWQD-157">
          <mxGeometry x="120" width="60" height="40" as="geometry">
            <mxRectangle width="60" height="40" as="alternateBounds" />
          </mxGeometry>
        </mxCell>
        <mxCell id="1f2FrhAZtQ47NlTDxWQD-161" value="" style="shape=table;startSize=0;container=1;collapsible=0;childLayout=tableLayout;fontSize=16;" vertex="1" parent="1">
          <mxGeometry x="610" y="1300" width="180" height="40" as="geometry" />
        </mxCell>
        <mxCell id="1f2FrhAZtQ47NlTDxWQD-162" value="" style="shape=tableRow;horizontal=0;startSize=0;swimlaneHead=0;swimlaneBody=0;strokeColor=inherit;top=0;left=0;bottom=0;right=0;collapsible=0;dropTarget=0;fillColor=none;points=[[0,0.5],[1,0.5]];portConstraint=eastwest;fontSize=16;" vertex="1" parent="1f2FrhAZtQ47NlTDxWQD-161">
          <mxGeometry width="180" height="40" as="geometry" />
        </mxCell>
        <mxCell id="1f2FrhAZtQ47NlTDxWQD-163" value="ptr" style="shape=partialRectangle;html=1;whiteSpace=wrap;connectable=0;strokeColor=#6c8ebf;overflow=hidden;fillColor=#dae8fc;top=0;left=0;bottom=0;right=0;pointerEvents=1;fontSize=16;" vertex="1" parent="1f2FrhAZtQ47NlTDxWQD-162">
          <mxGeometry width="60" height="40" as="geometry">
            <mxRectangle width="60" height="40" as="alternateBounds" />
          </mxGeometry>
        </mxCell>
        <mxCell id="1f2FrhAZtQ47NlTDxWQD-164" value="A" style="shape=partialRectangle;html=1;whiteSpace=wrap;connectable=0;strokeColor=#d6b656;overflow=hidden;fillColor=#fff2cc;top=0;left=0;bottom=0;right=0;pointerEvents=1;fontSize=16;" vertex="1" parent="1f2FrhAZtQ47NlTDxWQD-162">
          <mxGeometry x="60" width="60" height="40" as="geometry">
            <mxRectangle width="60" height="40" as="alternateBounds" />
          </mxGeometry>
        </mxCell>
        <mxCell id="1f2FrhAZtQ47NlTDxWQD-165" value="ptr" style="shape=partialRectangle;html=1;whiteSpace=wrap;connectable=0;strokeColor=#6c8ebf;overflow=hidden;fillColor=#dae8fc;top=0;left=0;bottom=0;right=0;pointerEvents=1;fontSize=16;" vertex="1" parent="1f2FrhAZtQ47NlTDxWQD-162">
          <mxGeometry x="120" width="60" height="40" as="geometry">
            <mxRectangle width="60" height="40" as="alternateBounds" />
          </mxGeometry>
        </mxCell>
        <mxCell id="1f2FrhAZtQ47NlTDxWQD-166" value="" style="shape=table;startSize=0;container=1;collapsible=0;childLayout=tableLayout;fontSize=16;" vertex="1" parent="1">
          <mxGeometry x="600" y="1410" width="180" height="40" as="geometry" />
        </mxCell>
        <mxCell id="1f2FrhAZtQ47NlTDxWQD-167" value="" style="shape=tableRow;horizontal=0;startSize=0;swimlaneHead=0;swimlaneBody=0;strokeColor=inherit;top=0;left=0;bottom=0;right=0;collapsible=0;dropTarget=0;fillColor=none;points=[[0,0.5],[1,0.5]];portConstraint=eastwest;fontSize=16;" vertex="1" parent="1f2FrhAZtQ47NlTDxWQD-166">
          <mxGeometry width="180" height="40" as="geometry" />
        </mxCell>
        <mxCell id="1f2FrhAZtQ47NlTDxWQD-168" value="ptr" style="shape=partialRectangle;html=1;whiteSpace=wrap;connectable=0;strokeColor=#6c8ebf;overflow=hidden;fillColor=#dae8fc;top=0;left=0;bottom=0;right=0;pointerEvents=1;fontSize=16;" vertex="1" parent="1f2FrhAZtQ47NlTDxWQD-167">
          <mxGeometry width="60" height="40" as="geometry">
            <mxRectangle width="60" height="40" as="alternateBounds" />
          </mxGeometry>
        </mxCell>
        <mxCell id="1f2FrhAZtQ47NlTDxWQD-169" value="A" style="shape=partialRectangle;html=1;whiteSpace=wrap;connectable=0;strokeColor=#d6b656;overflow=hidden;fillColor=#fff2cc;top=0;left=0;bottom=0;right=0;pointerEvents=1;fontSize=16;" vertex="1" parent="1f2FrhAZtQ47NlTDxWQD-167">
          <mxGeometry x="60" width="60" height="40" as="geometry">
            <mxRectangle width="60" height="40" as="alternateBounds" />
          </mxGeometry>
        </mxCell>
        <mxCell id="1f2FrhAZtQ47NlTDxWQD-170" value="ptr" style="shape=partialRectangle;html=1;whiteSpace=wrap;connectable=0;strokeColor=#6c8ebf;overflow=hidden;fillColor=#dae8fc;top=0;left=0;bottom=0;right=0;pointerEvents=1;fontSize=16;" vertex="1" parent="1f2FrhAZtQ47NlTDxWQD-167">
          <mxGeometry x="120" width="60" height="40" as="geometry">
            <mxRectangle width="60" height="40" as="alternateBounds" />
          </mxGeometry>
        </mxCell>
        <mxCell id="1f2FrhAZtQ47NlTDxWQD-171" style="edgeStyle=orthogonalEdgeStyle;rounded=0;orthogonalLoop=1;jettySize=auto;html=1;exitX=0.161;exitY=0.95;exitDx=0;exitDy=0;entryX=0.5;entryY=0;entryDx=0;entryDy=0;exitPerimeter=0;curved=1;" edge="1" parent="1" source="1f2FrhAZtQ47NlTDxWQD-156" target="1f2FrhAZtQ47NlTDxWQD-161">
          <mxGeometry relative="1" as="geometry" />
        </mxCell>
        <mxCell id="1f2FrhAZtQ47NlTDxWQD-172" style="edgeStyle=orthogonalEdgeStyle;rounded=0;orthogonalLoop=1;jettySize=auto;html=1;exitX=0.167;exitY=1.075;exitDx=0;exitDy=0;entryX=0.5;entryY=0;entryDx=0;entryDy=0;curved=1;exitPerimeter=0;" edge="1" parent="1" source="1f2FrhAZtQ47NlTDxWQD-161" target="1f2FrhAZtQ47NlTDxWQD-166">
          <mxGeometry relative="1" as="geometry" />
        </mxCell>
      </root>
    </mxGraphModel>
  </diagram>
</mxfile>
